<?xml version="1.0" encoding="UTF-8"?>
<!-- Generator: visioncortex VTracer 0.6.3 -->
<svg version="1.1" xmlns="http://www.w3.org/2000/svg" width="1280" height="1280">
<path d="M0 0 C4.81 1.79 9.37 4.13 13.97 6.39 C16.21 7.48 18.45 8.57 20.7 9.66 C21.8 10.2 22.91 10.73 24.05 11.29 C28.44 13.42 32.86 15.5 37.28 17.57 C43.86 20.68 50.4 23.87 56.88 27.18 C60.93 29.23 65.03 31.06 69.22 32.82 C70.78 33.53 72.34 34.23 73.9 34.95 C77.6 36.64 81.31 38.31 85.02 39.97 C100.33 46.82 100.33 46.82 105.65 49.57 C110.31 51.97 115.14 53.79 120.04 55.61 C124.62 57.36 129.09 59.33 133.58 61.29 C142.97 65.37 152.33 69.11 162.22 71.82 C164.22 72.49 166.22 73.15 168.22 73.82 C184.01 79.1 199.64 83.23 216.18 85.4 C219.5 85.86 222.7 86.55 225.96 87.32 C231.63 88.58 237.41 89.38 243.16 90.29 C249.78 91.36 256.31 92.68 262.86 94.11 C269.02 95.42 275.22 96.48 281.43 97.54 C282.18 97.67 282.93 97.8 283.7 97.93 C285.17 98.19 286.64 98.44 288.12 98.68 C292.59 99.45 296.85 100.56 301.22 101.82 C303.17 102.19 305.13 102.53 307.09 102.82 C314.19 103.96 321.08 105.53 328.03 107.32 C333.1 108.61 338.16 109.54 343.33 110.3 C346.71 110.91 349.92 111.85 353.22 112.82 C354.65 113.22 356.09 113.62 357.52 114.01 C367.65 116.78 377.61 119.52 387.22 123.82 C388.02 124.17 388.82 124.52 389.64 124.88 C403.37 130.95 417.87 137.89 429.22 147.82 C431.43 149.1 431.43 149.1 433.22 149.82 C433.22 150.48 433.22 151.14 433.22 151.82 C433.88 152.03 434.54 152.24 435.22 152.45 C441.51 155.34 446.42 159.91 451.22 164.82 C455.66 168.92 460.12 172.98 464.84 176.76 C465.63 177.44 466.41 178.12 467.22 178.82 C467.22 179.48 467.22 180.14 467.22 180.82 C467.8 181.08 468.39 181.34 469 181.61 C475.37 185.1 479.18 191.65 481.56 198.31 C483.26 204.85 482.38 210.47 480.22 216.82 C476.91 226.75 476.32 241.93 480.22 251.82 C481.68 254.08 483.24 256.14 484.97 258.2 C486.22 259.82 486.22 259.82 486.22 261.82 C486.94 262.1 487.66 262.38 488.41 262.67 C491.07 263.77 493.6 265 496.15 266.32 C499.78 268.16 503.3 269.69 507.22 270.82 C507.22 271.48 507.22 272.14 507.22 272.82 C507.81 273.04 508.41 273.25 509.03 273.47 C512.02 275.32 512.75 277.34 514.22 280.51 C515.9 284.07 517.57 287.56 519.59 290.95 C521.22 293.82 521.22 293.82 521.22 295.82 C521.88 295.82 522.54 295.82 523.22 295.82 C523.55 296.48 523.88 297.14 524.22 297.82 C526.2 297.82 528.18 297.82 530.22 297.82 C530.55 297.16 530.88 296.5 531.22 295.82 C531.88 295.82 532.54 295.82 533.22 295.82 C533.46 295.14 533.71 294.46 533.97 293.76 C535.18 290.91 536.64 288.32 538.21 285.66 C539.2 283.85 540 282.04 540.78 280.14 C542.02 277.28 543.11 275.11 545.22 272.82 C545.88 272.82 546.54 272.82 547.22 272.82 C547.22 272.16 547.22 271.5 547.22 270.82 C548.52 270.35 548.52 270.35 549.85 269.87 C555.8 267.66 561.09 265.56 566.22 261.82 C566.88 261.82 567.54 261.82 568.22 261.82 C568.49 261.25 568.77 260.68 569.06 260.09 C570.59 257.09 572.35 254.22 574.1 251.34 C576.9 245.05 576.29 238.23 575.97 231.51 C575.93 230.18 575.93 230.18 575.88 228.83 C575.63 223.2 574.63 218.35 572.88 213.01 C570.22 204.25 573.15 196.58 577.22 188.82 C577.88 188.82 578.54 188.82 579.22 188.82 C579.48 188.23 579.75 187.64 580.02 187.03 C583.17 181.22 589.18 176.9 594.13 172.63 C596.29 170.77 598.41 168.86 600.53 166.95 C604.82 163.13 609.24 159.49 613.7 155.88 C615.73 154.22 617.73 152.54 619.72 150.82 C622.22 148.82 622.22 148.82 625.22 147.82 C625.65 147.39 626.08 146.95 626.53 146.5 C630.62 142.44 636.29 139.8 641.22 136.82 C642.09 136.27 642.97 135.72 643.87 135.15 C649.17 131.83 654.53 129.29 660.34 126.98 C662.88 125.96 665.36 124.86 667.84 123.7 C671.73 121.95 675.66 120.71 679.75 119.54 C682.1 118.86 684.4 118.11 686.72 117.32 C691.52 115.71 696.36 114.24 701.22 112.82 C702.31 112.5 703.4 112.17 704.53 111.83 C708.37 110.78 712.23 110.02 716.15 109.32 C721.57 108.34 726.89 107.23 732.22 105.82 C738.73 104.22 745.31 103.07 751.93 101.97 C756.76 101.14 761.46 100.05 766.22 98.82 C773.29 97.23 780.46 96.09 787.62 94.97 C791.26 94.38 794.84 93.71 798.41 92.79 C801.6 91.98 804.72 91.34 807.97 90.82 C809 90.66 810.03 90.49 811.09 90.32 C812.12 90.16 813.15 89.99 814.22 89.82 C822.03 88.58 829.78 87.13 837.53 85.55 C840.9 84.89 844.27 84.3 847.65 83.76 C853.39 82.83 858.88 81.5 864.47 79.89 C867.6 79 870.74 78.21 873.9 77.45 C878.96 76.19 883.87 74.69 888.8 73 C891.44 72.09 894.08 71.21 896.73 70.34 C897.92 69.95 897.92 69.95 899.13 69.55 C900.69 69.04 902.25 68.53 903.81 68.02 C908.39 66.5 912.8 64.78 917.22 62.82 C919.17 62.01 921.13 61.2 923.09 60.39 C926.59 58.93 930.08 57.45 933.53 55.89 C936.84 54.39 940.19 53.04 943.58 51.71 C949.98 49.21 956.13 46.47 962.25 43.33 C969.25 39.78 976.45 36.63 983.59 33.39 C989.81 30.57 995.99 27.68 1002.17 24.78 C1004.29 23.79 1006.41 22.8 1008.53 21.81 C1015.7 18.45 1022.83 15.04 1029.9 11.47 C1035.14 8.87 1040.43 6.39 1045.72 3.9 C1046.89 3.34 1046.89 3.34 1048.09 2.78 C1048.79 2.45 1049.49 2.12 1050.21 1.78 C1051.59 1.12 1052.96 0.42 1054.3 -0.32 C1056.9 -1.48 1058.54 -0.92 1061.22 -0.18 C1061.61 8.07 1059.89 13.93 1056.65 21.45 C1055.16 24.75 1055.16 24.75 1054.34 28.07 C1050.68 40.28 1044.09 53.56 1035.22 62.82 C1034.56 62.82 1033.9 62.82 1033.22 62.82 C1032.95 63.42 1032.68 64.02 1032.4 64.64 C1031.22 66.82 1030.12 68.24 1028.22 69.82 C1027.56 69.82 1026.9 69.82 1026.22 69.82 C1025.89 70.81 1025.56 71.8 1025.22 72.82 C1024.56 72.82 1023.9 72.82 1023.22 72.82 C1022.89 73.81 1022.56 74.8 1022.22 75.82 C1017.76 79.82 1017.76 79.82 1015.22 79.82 C1015.22 80.81 1015.22 81.8 1015.22 82.82 C1015.88 82.66 1016.54 82.49 1017.22 82.32 C1020.95 81.7 1024.44 81.76 1028.22 81.82 C1029.13 84.8 1029.45 86.29 1028.17 89.18 C1023.35 95.95 1017.84 100.85 1011.22 105.82 C1010.16 106.64 1010.16 106.64 1009.08 107.47 C1007.15 108.95 1005.19 110.39 1003.22 111.82 C1002.45 112.39 1001.68 112.95 1000.89 113.54 C994.91 117.84 988.73 121.4 982.22 124.82 C981.02 125.47 979.83 126.12 978.64 126.77 C970.64 131.11 962.54 135.11 954.22 138.82 C953.44 139.18 952.66 139.54 951.87 139.91 C946.52 142.35 941.07 144.44 935.58 146.53 C929.02 149.06 922.49 151.65 916.22 154.82 C917.43 154.86 917.43 154.86 918.68 154.9 C922.38 155.02 926.08 155.14 929.78 155.26 C931.06 155.3 932.33 155.34 933.65 155.38 C934.89 155.42 936.13 155.47 937.41 155.51 C939.11 155.56 939.11 155.56 940.85 155.62 C950.61 156.21 950.61 156.21 952.22 157.82 C951.98 163.68 950.56 166.22 946.34 170.2 C945.85 170.67 945.36 171.14 944.85 171.62 C934.15 181.64 922.3 190.85 909.31 197.72 C907.9 198.46 906.52 199.24 905.16 200.06 C898.54 204 891.5 206.38 884.22 208.82 C882.97 209.26 882.97 209.26 881.71 209.7 C879.55 210.44 877.39 211.14 875.22 211.82 C874.38 212.09 873.54 212.36 872.68 212.64 C861 216.13 849.01 215.97 836.9 215.89 C835.06 215.88 835.06 215.88 833.18 215.87 C830.19 215.86 827.2 215.85 824.22 215.82 C825.06 216.2 825.9 216.57 826.77 216.96 C827.87 217.47 828.96 217.98 830.09 218.51 C831.73 219.26 831.73 219.26 833.4 220.02 C836.22 221.82 836.22 221.82 837.72 224.34 C838.22 226.82 838.22 226.82 836.22 229.82 C835.56 229.82 834.9 229.82 834.22 229.82 C834.22 230.48 834.22 231.14 834.22 231.82 C826.59 237.28 818.04 240.8 809.22 243.82 C808.41 244.11 807.6 244.4 806.77 244.69 C791.42 249.74 776.23 250.26 760.22 249.82 C760.22 250.48 760.22 251.14 760.22 251.82 C761.43 251.93 762.65 252.03 763.9 252.14 C767.63 252.61 770.21 253.46 773.22 255.82 C773.55 256.81 773.88 257.8 774.22 258.82 C764.45 270.54 743.39 272.9 728.91 274.59 C717.75 275.56 706.31 275.44 695.22 273.82 C695.22 274.81 695.22 275.8 695.22 276.82 C696.87 277.15 698.52 277.48 700.22 277.82 C701.22 280.82 701.22 280.82 700.53 282.88 C696.8 288.39 687.6 289.78 681.4 291.01 C680.58 291.18 679.75 291.35 678.9 291.52 C666.82 293.72 654.46 293.67 642.22 293.82 C643.9 297.12 643.9 297.12 647.12 297.41 C649.43 297.65 651.74 297.87 654.05 298.1 C657.64 298.92 658.92 300.02 661.22 302.82 C660.19 305.76 659.41 306.71 656.67 308.28 C655.61 308.73 654.56 309.18 653.47 309.64 C651.71 310.41 651.71 310.41 649.92 311.19 C649.31 311.46 648.7 311.72 648.07 312 C633.04 318.69 619.39 327.07 606.22 336.82 C605.32 337.48 604.43 338.13 603.51 338.81 C599.07 342.14 595.62 345.45 592.22 349.82 C590.03 352.2 590.03 352.2 588.22 353.82 C587.56 353.82 586.9 353.82 586.22 353.82 C585.93 354.4 585.64 354.98 585.34 355.57 C584.22 357.82 584.22 357.82 582.88 359.53 C581.86 362.07 581.86 362.07 583.96 365.14 C584.8 366.38 585.66 367.61 586.53 368.82 C591.13 375.42 591.13 375.42 591.66 377.97 C591.85 378.58 592.03 379.19 592.22 379.82 C593.21 380.15 594.2 380.48 595.22 380.82 C596.39 382.61 596.39 382.61 597.53 384.89 C599.24 388.13 601.03 391.05 603.28 393.95 C612.64 406.12 615.01 418.29 613.53 433.45 C612.64 445.12 617.99 452.38 624.22 461.82 C628.22 468.23 628.22 468.23 628.22 471.82 C628.88 471.82 629.54 471.82 630.22 471.82 C634.93 478.66 635.91 483.99 635.59 492.2 C635.57 493.68 635.57 493.68 635.55 495.18 C635.4 502.26 635.4 502.26 634.22 505.82 C632.24 506.15 630.26 506.48 628.22 506.82 C627.04 505.37 625.88 503.91 624.72 502.45 C624.07 501.64 623.42 500.83 622.75 499.99 C621.22 497.82 621.22 497.82 621.22 495.82 C620.35 495.41 620.35 495.41 619.46 494.98 C617.33 493.88 615.35 492.68 613.34 491.39 C611.97 490.53 610.59 489.68 609.22 488.82 C608.29 488.25 607.36 487.67 606.4 487.07 C600.16 484.63 593.48 484.77 586.84 484.89 C583.22 484.91 580.32 484.93 577.22 482.82 C576.15 480.57 576.15 480.57 576.22 477.82 C579.04 471.33 585.09 467.99 591.22 464.82 C592.21 464.82 593.2 464.82 594.22 464.82 C592.82 460.36 590.33 457.19 587.46 453.59 C586.22 451.82 586.22 451.82 586.22 449.82 C585.23 449.49 584.24 449.16 583.22 448.82 C579.22 444.37 579.22 444.37 579.22 441.82 C578.23 441.49 577.24 441.16 576.22 440.82 C574.86 439.17 573.53 437.51 572.22 435.82 C571.23 435.16 570.24 434.5 569.22 433.82 C569.22 433.16 569.22 432.5 569.22 431.82 C568.64 431.54 568.06 431.25 567.47 430.95 C565.22 429.82 565.22 429.82 563.4 428.7 C559.63 427.19 555.88 427.69 551.9 428.01 C549.35 429.24 549.18 431.23 548.22 433.82 C546.09 436.14 546.09 436.14 544.22 437.82 C541.22 436.82 541.22 436.82 539.83 434.61 C539.4 433.71 538.97 432.81 538.53 431.89 C538.09 430.99 537.66 430.1 537.21 429.17 C536.22 426.82 536.22 426.82 536.22 424.82 C535.23 424.49 534.24 424.16 533.22 423.82 C533.22 423.16 533.22 422.5 533.22 421.82 C529.26 421.82 525.3 421.82 521.22 421.82 C521.22 422.48 521.22 423.14 521.22 423.82 C520.23 424.48 519.24 425.14 518.22 425.82 C517.08 427.82 516.02 429.87 515.03 431.95 C514.23 433.59 514.23 433.59 513.42 435.27 C513.03 436.11 512.63 436.96 512.22 437.82 C509.03 436.45 507.25 434.96 505.09 432.26 C503.01 429.61 503.01 429.61 500.22 427.82 C495.13 427.44 492.4 427.92 488.22 430.82 C487.23 431.15 486.24 431.48 485.22 431.82 C484.89 432.81 484.56 433.8 484.22 434.82 C482.83 435.94 481.44 437.05 480.04 438.15 C476.92 441.01 474.49 444.44 471.95 447.81 C471.38 448.48 470.81 449.14 470.22 449.82 C469.56 449.82 468.9 449.82 468.22 449.82 C467.88 450.88 467.88 450.88 467.53 451.95 C466.22 454.82 466.22 454.82 463.65 457.89 C461.53 460.45 460.59 461.61 460.22 464.82 C461.08 465.07 461.95 465.32 462.84 465.57 C467.57 467.32 471.99 469.87 475.22 473.82 C475.22 474.48 475.22 475.14 475.22 475.82 C475.88 475.82 476.54 475.82 477.22 475.82 C477.9 477.57 477.9 477.57 478.22 479.82 C477.07 481.92 477.07 481.92 475.22 483.82 C472.77 484.41 472.77 484.41 469.88 484.55 C468.84 484.61 467.79 484.67 466.71 484.74 C465.08 484.81 465.08 484.81 463.4 484.89 C453.91 485.25 453.91 485.25 445.22 488.82 C444.23 488.82 443.24 488.82 442.22 488.82 C442.22 489.48 442.22 490.14 442.22 490.82 C440.22 492.17 438.22 493.5 436.22 494.82 C433.29 497.47 431.28 499.72 429.28 503.14 C428.6 504.02 427.92 504.91 427.22 505.82 C423.97 506.2 423.97 506.2 421.22 505.82 C417.81 497.29 417.39 486 420.46 477.31 C421.91 474.67 423.46 472.27 425.22 469.82 C425.74 468.9 426.26 467.98 426.79 467.04 C427.26 466.31 427.73 465.58 428.22 464.82 C428.88 464.82 429.54 464.82 430.22 464.82 C430.28 464.14 430.34 463.46 430.4 462.76 C431.17 459.98 431.85 458.76 433.53 456.51 C439.94 447.92 441.61 440.71 440.65 430.07 C439.37 414.31 444.8 403.64 453.22 390.82 C454.36 388.99 455.51 387.16 456.65 385.32 C459.09 381.47 461.68 377.79 464.4 374.14 C467.57 369.86 470.02 365.67 472.22 360.82 C467.96 355.2 463.71 350.05 458.28 345.54 C456.06 343.7 453.96 341.77 451.84 339.82 C447.23 335.73 442.35 332.23 437.22 328.82 C436.39 328.26 435.56 327.7 434.7 327.11 C427.49 322.34 419.91 318.54 412.16 314.77 C409.27 313.37 406.4 311.94 403.53 310.51 C402.62 310.06 401.71 309.61 400.77 309.15 C398.18 307.81 395.7 306.35 393.22 304.82 C393.53 302.95 393.53 302.95 394.22 300.82 C397.74 298.48 399.72 298.45 403.9 298.2 C405.08 298.12 406.26 298.05 407.48 297.97 C408.38 297.92 409.29 297.88 410.22 297.82 C410.22 297.16 410.22 296.5 410.22 295.82 C410.88 295.16 411.54 294.5 412.22 293.82 C411.1 293.81 411.1 293.81 409.96 293.8 C364.37 293.08 364.37 293.08 354.22 283.82 C353.48 281.16 353.48 281.16 353.22 278.82 C356.22 276.82 356.22 276.82 359.22 276.82 C359.22 275.83 359.22 274.84 359.22 273.82 C358.11 273.99 357 274.15 355.86 274.32 C350.87 274.94 345.93 274.98 340.9 274.95 C339.98 274.95 339.05 274.94 338.09 274.94 C320.52 274.81 296.94 272.61 282.22 261.82 C280.96 259.67 280.96 259.67 280.22 257.82 C282.78 254.84 285.61 253.34 289.22 251.82 C292.09 251.64 292.09 251.64 294.22 251.82 C294.22 251.16 294.22 250.5 294.22 249.82 C293.67 249.85 293.11 249.87 292.55 249.89 C266.83 250.73 241.94 246.51 220.22 231.82 C220.22 231.16 220.22 230.5 220.22 229.82 C218.9 229.16 217.58 228.5 216.22 227.82 C216.45 225.49 216.45 225.49 217.22 222.82 C219.14 221.31 219.14 221.31 221.53 220.14 C222.31 219.74 223.09 219.35 223.89 218.94 C224.66 218.57 225.43 218.2 226.22 217.82 C227.55 217.16 228.88 216.49 230.22 215.82 C229.46 215.84 228.7 215.85 227.92 215.86 C183.39 216.39 144.62 204.83 111.86 173.43 C102.32 164.02 102.32 164.02 101.98 160.16 C102.22 157.82 102.22 157.82 103.22 156.82 C107.83 156.03 112.35 155.66 117.03 155.51 C118.89 155.45 118.89 155.45 120.79 155.38 C122.06 155.34 123.34 155.3 124.65 155.26 C125.96 155.22 127.26 155.18 128.61 155.13 C131.81 155.03 135.01 154.92 138.22 154.82 C135.33 153.03 132.62 151.46 129.4 150.4 C128.7 150.16 128.01 149.92 127.29 149.68 C126.57 149.44 125.84 149.2 125.09 148.95 C118.26 146.61 111.73 143.95 105.22 140.82 C103.26 139.93 101.3 139.03 99.34 138.14 C89.93 133.79 80.58 129.3 71.22 124.82 C71.22 124.16 71.22 123.5 71.22 122.82 C70.49 122.72 69.75 122.62 69 122.51 C65.98 121.77 64.18 120.68 61.65 118.89 C58.91 116.95 56.26 115.25 53.22 113.82 C53.22 113.16 53.22 112.5 53.22 111.82 C52.69 111.75 52.16 111.68 51.61 111.61 C48.22 110.5 45.68 108.43 42.9 106.26 C42.33 105.81 41.75 105.36 41.15 104.9 C36.62 101.3 32.73 97.45 29.22 92.82 C28.77 92.28 28.33 91.73 27.88 91.17 C25.91 88.57 25.18 87.26 25.47 83.95 C25.71 83.25 25.96 82.55 26.22 81.82 C30.73 81.75 34.81 81.72 39.22 82.82 C38.45 81.88 37.69 80.93 36.9 79.95 C36.48 79.42 36.05 78.88 35.6 78.33 C34.09 76.57 34.09 76.57 31.22 74.82 C31.22 74.16 31.22 73.5 31.22 72.82 C30.66 72.59 30.1 72.35 29.52 72.11 C21.55 67.67 14.59 58.72 10.22 50.82 C10.22 49.83 10.22 48.84 10.22 47.82 C9.56 47.82 8.9 47.82 8.22 47.82 C4.79 40.69 1.92 33.47 -0.67 25.99 C-1.64 23.23 -2.68 20.53 -3.78 17.82 C-6.27 11.58 -7.1 6.56 -6.78 -0.18 C-4.16 -1.49 -2.71 -0.84 0 0 Z M361.22 271.82 C365.22 272.82 365.22 272.82 365.22 272.82 Z M689.22 271.82 C693.22 272.82 693.22 272.82 693.22 272.82 Z " fill="#001E45" transform="translate(112.783203125,387.17529296875)"/>
<path d="M0 0 C6.5 -0.46 10.42 0.67 16 4 C15.12 7.88 15.12 7.88 14 9 C5.28 9.43 5.28 9.43 2 7 C0.19 5.06 0.19 5.06 -1 3 C-0.67 2.01 -0.34 1.02 0 0 Z " fill="#001B3D" transform="translate(609,636)"/>
<path d="M0 0 C0.66 0.99 1.32 1.98 2 3 C-3.38 8.65 -3.38 8.65 -7.18 9.47 C-9.31 9.5 -9.31 9.5 -13 9 C-13.66 8.34 -14.32 7.68 -15 7 C-15 5.06 -15 5.06 -14 3 C-9.28 -0.22 -5.52 -0.55 0 0 Z " fill="#001633" transform="translate(670,636)"/>
</svg>
